<svg width="32" height="32" viewBox="0 0 32 32" fill="none" xmlns="http://www.w3.org/2000/svg">
<mask id="mask0_5496_5061" style="mask-type:alpha" maskUnits="userSpaceOnUse" x="0" y="0" width="32" height="32">
<rect width="32" height="32" fill="#D9D9D9"/>
</mask>
<g mask="url(#mask0_5496_5061)">
<path d="M6.83767 24.4889C6.60033 24.4889 6.40144 24.4132 6.241 24.2619C6.08033 24.1106 6 23.923 6 23.6992C6 23.4756 6.08033 23.2895 6.241 23.1409C6.40144 22.9923 6.60033 22.9179 6.83767 22.9179H8.41033V13.2234C8.41033 11.534 8.96 10.0317 10.0593 8.71659C11.1589 7.40148 12.5836 6.57771 14.3333 6.24528V5.56313C14.3333 5.129 14.4952 4.75989 14.819 4.45581C15.1428 4.15194 15.5359 4 15.9983 4C16.461 4 16.8547 4.15194 17.1793 4.45581C17.5042 4.75989 17.6667 5.129 17.6667 5.56313V6.24935C19.4164 6.57906 20.8411 7.40148 21.9407 8.71659C23.04 10.0317 23.5897 11.534 23.5897 13.2234V22.9179H25.1623C25.3997 22.9179 25.5986 22.9936 25.759 23.1449C25.9197 23.2964 26 23.484 26 23.7076C26 23.9315 25.9197 24.1177 25.759 24.2663C25.5986 24.4147 25.3997 24.4889 25.1623 24.4889H6.83767ZM15.9977 28C15.3343 28 14.7672 27.7787 14.2963 27.336C13.8252 26.8933 13.5897 26.3611 13.5897 25.7394H18.4103C18.4103 26.3632 18.1741 26.8959 17.7017 27.3375C17.2292 27.7792 16.6612 28 15.9977 28ZM10.0853 22.9179H21.9147V13.2234C21.9147 11.688 21.3381 10.3796 20.185 9.29808C19.0321 8.21681 17.6371 7.67617 16 7.67617C14.3629 7.67617 12.9679 8.21681 11.815 9.29808C10.6619 10.3796 10.0853 11.688 10.0853 13.2234V22.9179Z" fill="#6F717C"/>
</g>
</svg>
