<svg width="32" height="32" viewBox="0 0 32 32" fill="none" xmlns="http://www.w3.org/2000/svg">
<mask id="mask0_5496_5058" style="mask-type:alpha" maskUnits="userSpaceOnUse" x="0" y="0" width="32" height="32">
<rect width="32" height="32" fill="#D9D9D9"/>
</mask>
<g mask="url(#mask0_5496_5058)">
<path d="M16 28C14.3375 28 12.7762 27.6846 11.3162 27.0539C9.85621 26.4232 8.58379 25.5666 7.49895 24.4843C6.41389 23.402 5.55947 22.1286 4.93568 20.6642C4.31189 19.2 4 17.6339 4 15.9659C4 14.2989 4.31189 12.7388 4.93568 11.2856C5.55947 9.83211 6.41389 8.56421 7.49895 7.48189C8.58379 6.39958 9.85621 5.54863 11.3162 4.92905C12.7762 4.30968 14.3375 4 16 4C17.6669 4 19.2293 4.30968 20.6869 4.92905C22.1448 5.54863 23.4162 6.39958 24.5011 7.48189C25.5861 8.56421 26.4405 9.83211 27.0643 11.2856C27.6881 12.7388 28 14.2989 28 15.9659C28 17.6339 27.6881 19.2 27.0643 20.6642C26.4405 22.1286 25.5861 23.402 24.5011 24.4843C23.4162 25.5666 22.1448 26.4232 20.6869 27.0539C19.2293 27.6846 17.6669 28 16 28ZM16 26.446C16.7385 25.5965 17.3501 24.6964 17.8347 23.7457C18.3196 22.7952 18.7161 21.7042 19.0243 20.4728H12.9886C13.2989 21.7021 13.6952 22.7972 14.1773 23.758C14.6594 24.7188 15.2669 25.6148 16 26.446ZM13.8485 26.1586C13.2932 25.4155 12.7993 24.5565 12.3668 23.5818C11.9344 22.607 11.5957 21.5707 11.3506 20.4728H6.56989C7.33116 21.9983 8.30642 23.2251 9.49568 24.1531C10.6847 25.0811 12.1357 25.7496 13.8485 26.1586ZM18.1723 26.1457C19.746 25.7992 21.1652 25.1327 22.4298 24.1464C23.6946 23.1603 24.6947 21.9358 25.4301 20.4728H20.6623C20.3682 21.5758 20.0084 22.6118 19.5829 23.5808C19.1575 24.5501 18.6873 25.4051 18.1723 26.1457ZM5.99768 18.886H11.0478C10.9684 18.3449 10.9153 17.8376 10.8883 17.3639C10.8614 16.8902 10.8479 16.4242 10.8479 15.9659C10.8479 15.4731 10.8635 14.9998 10.8946 14.5461C10.926 14.0924 10.9814 13.6107 11.0607 13.1011H5.99768C5.85347 13.5703 5.74895 14.0343 5.68411 14.4931C5.61947 14.952 5.58716 15.4429 5.58716 15.9659C5.58716 16.4945 5.61947 16.9947 5.68411 17.4665C5.74895 17.9383 5.85347 18.4115 5.99768 18.886ZM12.6608 18.886H19.3521C19.4401 18.3052 19.4998 17.7919 19.5312 17.3462C19.5625 16.9005 19.5782 16.4404 19.5782 15.9659C19.5782 15.5055 19.5625 15.0581 19.5312 14.6238C19.4998 14.1895 19.4401 13.6819 19.3521 13.1011H12.6608C12.5728 13.6819 12.5132 14.1895 12.4818 14.6238C12.4504 15.0581 12.4347 15.5055 12.4347 15.9659C12.4347 16.4404 12.4504 16.9005 12.4818 17.3462C12.5132 17.7919 12.5728 18.3052 12.6608 18.886ZM20.9393 18.886H26.0023C26.1465 18.4115 26.2511 17.9383 26.3159 17.4665C26.3805 16.9947 26.4128 16.4945 26.4128 15.9659C26.4128 15.4429 26.3805 14.952 26.3159 14.4931C26.2511 14.0343 26.1465 13.5703 26.0023 13.1011H20.9604C21.0343 13.7219 21.0869 14.2535 21.1183 14.6958C21.1495 15.1383 21.1651 15.5617 21.1651 15.9659C21.1651 16.4328 21.1473 16.8932 21.1117 17.3468C21.0761 17.8007 21.0186 18.3138 20.9393 18.886ZM20.6494 11.5142H25.4301C24.7093 9.99505 23.7266 8.74916 22.4822 7.77653C21.2376 6.80368 19.794 6.15453 18.1515 5.82905C18.7068 6.60421 19.1945 7.46737 19.6145 8.41853C20.0345 9.36968 20.3795 10.4016 20.6494 11.5142ZM12.9886 11.5142H19.0455C18.7608 10.3698 18.3606 9.29789 17.8448 8.29853C17.3291 7.29895 16.7141 6.39274 16 5.5799C15.3171 6.28158 14.7377 7.10295 14.2619 8.044C13.7861 8.98526 13.3617 10.142 12.9886 11.5142ZM6.56989 11.5142H11.3636C11.6162 10.4275 11.9491 9.4121 12.3621 8.4681C12.7749 7.52389 13.2635 6.64853 13.8277 5.842C12.1822 6.17295 10.7457 6.81979 9.51811 7.78253C8.29074 8.74526 7.308 9.98916 6.56989 11.5142Z" fill="#6F717C"/>
</g>
</svg>
