<svg width="16" height="15" viewBox="0 0 16 15" fill="none" xmlns="http://www.w3.org/2000/svg">
<path d="M7.12207 1.50139C7.50107 0.806445 8.49893 0.806446 8.87793 1.50139L10.3932 4.2798C10.537 4.54352 10.7918 4.72862 11.087 4.78391L14.1977 5.36643C14.9758 5.51214 15.2841 6.46115 14.7403 7.03635L12.5661 9.33602C12.3597 9.55431 12.2624 9.8538 12.3011 10.1517L12.7083 13.2901C12.8102 14.0751 12.0029 14.6616 11.2878 14.3222L8.42883 12.9651C8.15745 12.8362 7.84254 12.8362 7.57117 12.9651L4.71219 14.3222C3.9971 14.6616 3.18982 14.0751 3.29168 13.2901L3.69892 10.1517C3.73757 9.8538 3.64026 9.55431 3.43388 9.33602L1.2597 7.03635C0.715891 6.46115 1.02425 5.51214 1.80229 5.36643L4.91295 4.78391C5.20822 4.72862 5.46299 4.54352 5.60682 4.27979L7.12207 1.50139Z" fill="#FFB038"/>
</svg>
